<?xml version="1.0" encoding="UTF-8" standalone="no"?>
<!-- Created with Inkscape (http://www.inkscape.org/) -->

<svg
   xmlns:dc="http://purl.org/dc/elements/1.1/"
   xmlns:cc="http://creativecommons.org/ns#"
   xmlns:rdf="http://www.w3.org/1999/02/22-rdf-syntax-ns#"
   xmlns:svg="http://www.w3.org/2000/svg"
   xmlns="http://www.w3.org/2000/svg"
   xmlns:sodipodi="http://sodipodi.sourceforge.net/DTD/sodipodi-0.dtd"
   xmlns:inkscape="http://www.inkscape.org/namespaces/inkscape"
   width="115mm"
   height="115mm"
   viewBox="0 0 115 115"
   version="1.1"
   id="svg8"
   inkscape:version="0.92.4 (unknown)"
   sodipodi:docname="icon.svg"
   inkscape:export-filename="/home/thalman/Pictures/icon-mollky.svg.png"
   inkscape:export-xdpi="96"
   inkscape:export-ydpi="96">
  <defs
     id="defs2" />
  <sodipodi:namedview
     id="base"
     pagecolor="#ffffff"
     bordercolor="#666666"
     borderopacity="1.0"
     inkscape:pageopacity="0.0"
     inkscape:pageshadow="2"
     inkscape:zoom="0.7"
     inkscape:cx="1.2247043"
     inkscape:cy="272.16512"
     inkscape:document-units="mm"
     inkscape:current-layer="layer1"
     showgrid="false"
     inkscape:window-width="1920"
     inkscape:window-height="1016"
     inkscape:window-x="0"
     inkscape:window-y="27"
     inkscape:window-maximized="1"
     fit-margin-top="0"
     fit-margin-left="0"
     fit-margin-right="0"
     fit-margin-bottom="0" />
  <metadata
     id="metadata5">
    <rdf:RDF>
      <cc:Work
         rdf:about="">
        <dc:format>image/svg+xml</dc:format>
        <dc:type
           rdf:resource="http://purl.org/dc/dcmitype/StillImage" />
        <dc:title />
      </cc:Work>
    </rdf:RDF>
  </metadata>
  <g
     inkscape:label="Layer 1"
     inkscape:groupmode="layer"
     id="layer1"
     transform="translate(-65.38987,-60.551086)">
    <circle
       style="fill:#9e9e9e;fill-opacity:1;stroke-width:0.83468151;stroke-linecap:round;stroke-miterlimit:4;stroke-dasharray:none"
       id="path5205"
       cx="122.5497"
       cy="118.24007"
       r="55.043156" />
    <path
       style="fill:#ffffff;fill-opacity:1;stroke:#000000;stroke-width:2;stroke-linecap:butt;stroke-linejoin:miter;stroke-miterlimit:4;stroke-dasharray:none;stroke-opacity:1"
       d="m 83.010115,101.01037 0.364546,42.15031 c 0.03498,4.04437 7.263442,5.59117 10.580076,5.55059 3.026346,-0.037 11.982263,-0.3286 11.989143,-4.18321 l 0.0783,-43.84842 z"
       id="path828"
       inkscape:connector-curvature="0"
       sodipodi:nodetypes="cssscc" />
    <ellipse
       style="fill:#ffffff;fill-opacity:1;stroke:#000000;stroke-width:2;stroke-linecap:square;stroke-linejoin:miter;stroke-miterlimit:4;stroke-dasharray:none;stroke-dashoffset:0;stroke-opacity:1"
       id="path826"
       cx="94.613426"
       cy="100.82417"
       rx="11.492589"
       ry="14.432554" />
    <g
       aria-label="3"
       transform="matrix(0.94078451,0,0,1.0629427,-1.0690781,0.26726953)"
       style="font-style:normal;font-weight:normal;font-size:12.07229519px;line-height:1.25;font-family:sans-serif;letter-spacing:0px;word-spacing:0px;fill:#000000;fill-opacity:1;stroke:none;stroke-width:0.30180737"
       id="text832">
      <path
         d="m 103.84873,93.826666 q 1.18679,0.306523 1.79984,1.068901 0.6209,0.754519 0.6209,1.925594 0,1.744824 -1.33612,2.656534 -1.33613,0.903855 -3.89835,0.903855 -0.90385,0 -1.815558,-0.14934 -0.90385,-0.14147 -1.791981,-0.432273 v -2.334291 q 0.848833,0.424417 1.681947,0.644484 0.840974,0.212209 1.650512,0.212209 1.20251,0 1.83914,-0.416557 0.64448,-0.416557 0.64448,-1.194655 0,-0.801675 -0.6602,-1.210373 -0.65235,-0.416557 -1.93346,-0.416557 h -1.21037 v -1.949173 h 1.27325 q 1.13964,0 1.69767,-0.35368 0.55803,-0.36154 0.55803,-1.09248 0,-0.675923 -0.54231,-1.045322 -0.54231,-0.3694 -1.53262,-0.3694 -0.73094,0 -1.477598,0.165051 -0.746659,0.165051 -1.485459,0.487293 v -2.216398 q 0.895991,-0.251506 1.776263,-0.377259 0.880274,-0.125753 1.729104,-0.125753 2.28713,0 3.41891,0.754518 1.13964,0.746659 1.13964,2.255696 0,1.029603 -0.54231,1.689807 -0.54231,0.652344 -1.60335,0.919569 z"
         style="font-weight:bold;font-size:16.09639359px;stroke-width:0.30180737"
         id="path836"
         inkscape:connector-curvature="0" />
    </g>
    <path
       style="fill:#ffffff;fill-opacity:1;stroke:#000000;stroke-width:2;stroke-linecap:butt;stroke-linejoin:miter;stroke-miterlimit:4;stroke-dasharray:none;stroke-opacity:1"
       d="m 113.44231,87.390959 0.36454,42.150311 c 0.035,4.04437 7.26345,5.59117 10.58008,5.55059 3.02635,-0.037 11.98227,-0.3286 11.98915,-4.18321 l 0.0783,-43.848421 z"
       id="path828-6"
       inkscape:connector-curvature="0"
       sodipodi:nodetypes="cssscc" />
    <ellipse
       style="fill:#ffffff;fill-opacity:1;stroke:#000000;stroke-width:2;stroke-linecap:square;stroke-linejoin:miter;stroke-miterlimit:4;stroke-dasharray:none;stroke-dashoffset:0;stroke-opacity:1"
       id="path826-1"
       cx="125.04562"
       cy="87.204758"
       rx="11.492589"
       ry="14.432554" />
    <g
       aria-label="1"
       transform="matrix(0.94078449,0,0,1.0629427,-1.0690781,0.26726953)"
       style="font-style:normal;font-weight:normal;font-size:12.07229519px;line-height:1.25;font-family:sans-serif;letter-spacing:0px;word-spacing:0px;fill:#000000;fill-opacity:1;stroke:none;stroke-width:0.30180737"
       id="text832-1">
      <path
         d="m 130.58468,85.250038 h 2.67225 v -7.584482 l -2.74299,0.565889 v -2.059207 l 2.72727,-0.565889 h 2.8766 v 9.643689 h 2.67225 v 2.090645 h -8.20538 z"
         style="font-weight:bold;font-size:16.09639359px;stroke-width:0.30180737"
         id="path839"
         inkscape:connector-curvature="0" />
    </g>
    <path
       style="fill:#ffffff;fill-opacity:1;stroke:#000000;stroke-width:2;stroke-linecap:butt;stroke-linejoin:miter;stroke-miterlimit:4;stroke-dasharray:none;stroke-opacity:1"
       d="m 128.68352,105.10245 0.43137,40.88078 c 0.0427,4.0443 7.26344,5.59117 10.58007,5.55059 3.02635,-0.037 11.98227,-0.3286 11.98915,-4.18321 l 0.31216,-44.85068 z"
       id="path828-3"
       inkscape:connector-curvature="0"
       sodipodi:nodetypes="cssscc" />
    <ellipse
       style="fill:#ffffff;fill-opacity:1;stroke:#000000;stroke-width:2;stroke-linecap:square;stroke-linejoin:miter;stroke-miterlimit:4;stroke-dasharray:none;stroke-dashoffset:0;stroke-opacity:1"
       id="path826-7"
       cx="159.26343"
       cy="71.252731"
       rx="11.492589"
       ry="14.432554"
       transform="rotate(12.34147)" />
    <g
       aria-label="4"
       transform="matrix(0.92630438,0.19950485,-0.2289855,1.0302405,-1.0690781,0.26726953)"
       style="font-style:normal;font-weight:normal;font-size:11.73652172px;line-height:1.25;font-family:sans-serif;letter-spacing:0px;word-spacing:0px;fill:#000000;fill-opacity:1;stroke:none;stroke-width:0.29341304"
       id="text832-2">
      <path
         d="m 168.9275,62.730824 -3.22449,4.775603 h 3.22449 z m -0.48902,-2.422186 h 3.27033 v 7.197789 h 1.62753 v 2.131829 h -1.62753 v 2.078343 h -2.78131 v -2.078343 h -5.05832 v -2.521518 z"
         style="font-weight:bold;font-size:15.64869595px;stroke-width:0.29341304"
         id="path842"
         inkscape:connector-curvature="0" />
    </g>
    <path
       style="fill:#ffffff;fill-opacity:1;stroke:#000000;stroke-width:2;stroke-linecap:butt;stroke-linejoin:miter;stroke-miterlimit:4;stroke-dasharray:none;stroke-opacity:1"
       d="m 121.34377,158.62141 40.49786,-11.69212 c 3.88581,-1.12189 3.43067,-8.49996 2.49921,-11.68337 -0.84991,-2.90478 -3.54045,-11.45198 -7.25476,-10.42148 l -42.2525,11.72251 z"
       id="path828-9"
       inkscape:connector-curvature="0"
       sodipodi:nodetypes="cssscc" />
    <ellipse
       style="fill:#ffffff;fill-opacity:1;stroke:#000000;stroke-width:2;stroke-linecap:square;stroke-linejoin:miter;stroke-miterlimit:4;stroke-dasharray:none;stroke-dashoffset:0;stroke-opacity:1"
       id="path826-2"
       cx="-173.81755"
       cy="74.003891"
       rx="11.492589"
       ry="14.432554"
       transform="rotate(-105.60842)" />
    <g
       aria-label="5"
       transform="matrix(-0.25312876,-0.90609121,1.0237446,-0.28599681,-1.0690781,0.26726953)"
       style="font-style:normal;font-weight:normal;font-size:12.07229519px;line-height:1.25;font-family:sans-serif;letter-spacing:0px;word-spacing:0px;fill:#000000;fill-opacity:1;stroke:none;stroke-width:0.30180737"
       id="text832-4">
      <path
         d="m -188.43902,64.474956 h 7.52161 v 2.224257 h -5.10872 v 1.81556 q 0.34582,-0.09432 0.69164,-0.141472 0.35368,-0.05502 0.73094,-0.05502 2.14566,0 3.34031,1.076761 1.19466,1.068901 1.19466,2.986635 0,1.902016 -1.30469,2.978776 -1.29683,1.076761 -3.60754,1.076761 -0.99817,0 -1.98061,-0.196489 -0.97459,-0.18863 -1.94131,-0.581608 v -2.381449 q 0.95886,0.55017 1.81556,0.825255 0.86455,0.275084 1.62693,0.275084 1.10033,0 1.7291,-0.53445 0.63663,-0.54231 0.63663,-1.46188 0,-0.927429 -0.63663,-1.461879 -0.62877,-0.534451 -1.7291,-0.534451 -0.65235,0 -1.39115,0.172911 -0.7388,0.165051 -1.58763,0.518731 z"
         style="font-weight:bold;font-size:16.09639359px;stroke-width:0.30180737"
         id="path845"
         inkscape:connector-curvature="0" />
    </g>
  </g>
</svg>
